<?xml version="1.0" encoding="utf-8"?>
<!-- Generator: Adobe Illustrator 16.0.0, SVG Export Plug-In . SVG Version: 6.00 Build 0)  -->
<svg version="1.2" baseProfile="tiny" id="Layer_1" xmlns="http://www.w3.org/2000/svg" xmlns:xlink="http://www.w3.org/1999/xlink"
	 x="0px" y="0px" width="1050px" height="155.724px" viewBox="0 0 1050 155.724" xml:space="preserve">
<g>
	<g>
		<path fill="#3492B3" d="M155.735,77.865c0,42.999-34.862,77.858-77.865,77.858C34.875,155.724,0,120.864,0,77.865
			C0,34.863,34.875,0,77.87,0C120.873,0,155.735,34.863,155.735,77.865z"/>
		<path fill="#FFE600" d="M69.471,51.024c0.03-0.716-0.015-3.854-1.522-5.362c-0.692-0.691-2.591-1.974-5.5,0.93L49.115,59.921
			L17.67,28.481C8.663,39.446,2.613,52.924,0.684,67.695l19.402,19.398L7.866,99.321c-3.423,3.41-2.313,5.535-1.335,6.518
			c1.547,1.555,4.58,1.626,5.167,1.614c1.838,0.282,51.163,7.2,57.326,7.208c2.247-0.02,3.578-0.935,4.294-1.713
			c1.733-1.877,1.567-4.494,1.538-4.776L69.471,51.024z"/>
		<path fill="#F9A51A" d="M155.046,88.032l-19.397-19.398l12.22-12.229c3.418-3.41,2.313-5.537,1.333-6.518
			c-1.55-1.553-4.577-1.627-5.166-1.616c-1.843-0.28-51.161-7.2-57.317-7.206c-2.254,0.015-3.584,0.936-4.304,1.714
			c-1.727,1.878-1.567,4.49-1.537,4.776l5.382,57.147c-0.026,0.715,0.016,3.854,1.521,5.362c0.694,0.691,2.597,1.976,5.506-0.932
			l13.33-13.324l31.448,31.435C147.072,116.284,153.118,102.806,155.046,88.032z"/>
	</g>
	<g>
		<path fill="#488BA6" d="M251.662,51.392h-33.357c-2.138,0-4.124,0.736-5.96,2.204c-1.837,1.47-2.99,3.273-3.456,5.41
			l-2.805,13.423h38.566l-1.603,7.711h-38.465l-6.311,30.252h-7.713l10.618-51.386c0.935-4.409,3.189-8.048,6.762-10.92
			c3.572-2.871,7.563-4.307,11.971-4.307h33.356L251.662,51.392z"/>
		<path fill="#488BA6" d="M198.521,110.7h-8.342l10.695-51.757c0.946-4.459,3.257-8.193,6.87-11.097
			c3.613-2.903,7.705-4.375,12.164-4.375h33.737l-1.732,8.23h-33.607c-2.054,0-3.995,0.719-5.768,2.136
			c-1.772,1.418-2.899,3.18-3.347,5.234l-2.728,13.05h38.566l-1.731,8.328h-38.466L198.521,110.7z M190.936,110.083h7.084
			l6.311-30.252h38.465l1.474-7.094h-38.566l2.883-13.794c0.48-2.2,1.679-4.08,3.565-5.588c1.885-1.507,3.955-2.271,6.152-2.271
			h33.106l1.473-6.997h-32.977c-4.314,0-8.277,1.426-11.777,4.24c-3.5,2.812-5.738,6.427-6.653,10.744L190.936,110.083z"/>
	</g>
	<g>
		<path fill="#488BA6" d="M301.948,95.165c-0.868,4.274-3.105,7.881-6.712,10.818c-3.606,2.943-7.547,4.408-11.82,4.408h-21.637
			c-4.274,0-7.613-1.465-10.017-4.408c-2.404-2.938-3.172-6.544-2.304-10.818l10.718-51.286h7.713l-10.718,51.286
			c-0.467,2.137-0.1,3.94,1.102,5.41c1.202,1.469,2.871,2.203,5.009,2.203h21.637c2.137,0,4.106-0.734,5.91-2.203
			c1.803-1.47,2.938-3.273,3.405-5.41l10.719-51.286h7.713L301.948,95.165z"/>
		<path fill="#488BA6" d="M283.416,110.7h-21.637c-4.354,0-7.804-1.521-10.256-4.521c-2.454-3-3.25-6.726-2.367-11.074l10.77-51.534
			h8.342l-10.795,51.658c-0.451,2.062-0.111,3.745,1.039,5.151c1.151,1.406,2.711,2.09,4.77,2.09h21.637
			c2.055,0,3.978-0.719,5.716-2.135c1.739-1.416,2.849-3.178,3.3-5.236l10.769-51.528h8.342l-10.796,51.658
			c-0.878,4.325-3.172,8.023-6.818,10.995C291.79,109.193,287.748,110.7,283.416,110.7z M260.427,44.188L249.76,95.229
			c-0.845,4.157-0.09,7.711,2.241,10.562c2.329,2.85,5.618,4.293,9.778,4.293h21.637c4.186,0,8.098-1.459,11.626-4.339
			c3.532-2.878,5.754-6.458,6.604-10.64l10.641-50.917h-7.084l-10.667,51.041c-0.481,2.2-1.662,4.077-3.513,5.586
			c-1.852,1.509-3.904,2.272-6.104,2.272h-21.637c-2.224,0-3.989-0.779-5.248-2.318c-1.259-1.537-1.651-3.444-1.165-5.67
			l10.641-50.911H260.427z"/>
	</g>
	<g>
		<path fill="#488BA6" d="M353.534,110.392h-29.351c-4.273,0-7.612-1.465-10.017-4.408c-2.404-2.938-3.172-6.544-2.304-10.818
			l10.718-51.386h7.713l-10.718,51.386c-0.4,2.07,0,3.857,1.202,5.358c1.202,1.505,2.838,2.255,4.908,2.255h29.35L353.534,110.392z"
			/>
		<path fill="#488BA6" d="M353.787,110.7h-29.604c-4.354,0-7.805-1.522-10.256-4.521c-2.454-3-3.25-6.726-2.366-11.074l10.77-51.634
			h8.343l-10.796,51.758c-0.381,1.964,0.004,3.683,1.141,5.103c1.15,1.439,2.677,2.139,4.668,2.139h29.726L353.787,110.7z
			 M322.832,44.087l-10.668,51.142c-0.844,4.157-0.09,7.711,2.241,10.562c2.329,2.85,5.618,4.293,9.778,4.293h29.097l1.381-6.996
			h-28.975c-2.159,0-3.892-0.798-5.149-2.371c-1.256-1.567-1.681-3.455-1.264-5.609l10.642-51.02H322.832z"/>
	</g>
	<g>
		<path fill="#488BA6" d="M408.228,110.392h-29.351c-4.273,0-7.612-1.465-10.017-4.408c-2.404-2.938-3.172-6.544-2.304-10.818
			l10.718-51.386h7.713L374.27,95.165c-0.4,2.07,0,3.857,1.202,5.358c1.202,1.505,2.838,2.255,4.908,2.255h29.35L408.228,110.392z"
			/>
		<path fill="#488BA6" d="M408.48,110.7h-29.604c-4.354,0-7.805-1.522-10.256-4.521c-2.454-3-3.25-6.726-2.366-11.074l10.77-51.634
			h8.343L374.57,95.229c-0.38,1.964,0.005,3.683,1.142,5.103c1.15,1.439,2.677,2.139,4.668,2.139h29.726L408.48,110.7z
			 M377.525,44.087l-10.668,51.142c-0.845,4.157-0.09,7.711,2.241,10.562c2.329,2.85,5.618,4.293,9.778,4.293h29.097l1.381-6.996
			H380.38c-2.159,0-3.892-0.798-5.149-2.371c-1.256-1.567-1.681-3.455-1.264-5.609l10.642-51.02H377.525z"/>
	</g>
	<g>
		<path fill="#F9A51A" d="M469.33,97.472c-0.867,4.207-3.104,7.511-6.711,9.914c-3.272,2.204-7.079,3.309-11.42,3.309h-32.055
			l1.604-7.613h32.055c5.142,0,8.08-1.87,8.814-5.609l2.505-11.82c0.734-3.74-1.47-5.609-6.611-5.609h-17.73
			c-4.342,0-7.68-1.104-10.018-3.308c-2.604-2.404-3.473-5.708-2.604-9.915l2.004-9.816c0.867-4.208,3.139-7.514,6.812-9.918
			c3.271-2.204,7.078-3.306,11.42-3.306h32.154l-1.603,7.613H445.79c-5.143,0-8.113,1.87-8.915,5.611l-2.003,9.816
			c-0.802,3.74,1.368,5.61,6.511,5.61h17.73c4.341,0,7.678,1.1,10.017,3.304c2.67,2.404,3.573,5.712,2.705,9.919L469.33,97.472z"/>
		<path fill="#F9A51A" d="M451.199,111.002h-32.435l1.732-8.229h32.306c5.02,0,7.803-1.754,8.512-5.36l2.507-11.825
			c0.29-1.485,0.09-2.664-0.598-3.498c-0.948-1.154-2.871-1.738-5.713-1.738h-17.73c-4.4,0-7.842-1.142-10.229-3.393
			c-2.675-2.469-3.582-5.902-2.694-10.202l2.003-9.815c0.88-4.272,3.217-7.675,6.944-10.115c3.305-2.226,7.204-3.356,11.589-3.356
			h32.533l-1.732,8.23H445.79c-5.022,0-7.84,1.755-8.613,5.367l-2.004,9.813c-0.319,1.497-0.14,2.675,0.534,3.51
			c0.929,1.149,2.839,1.73,5.676,1.73h17.73c4.401,0,7.843,1.139,10.229,3.388c2.739,2.469,3.683,5.903,2.795,10.206l-2.507,11.822
			c-0.88,4.266-3.182,7.666-6.841,10.107C459.48,109.871,455.581,111.002,451.199,111.002z M419.525,110.386h31.674
			c4.257,0,8.042-1.094,11.247-3.255c3.521-2.347,5.735-5.617,6.582-9.723l2.506-11.821c0.839-4.07-0.039-7.309-2.61-9.625
			c-2.272-2.143-5.572-3.225-9.811-3.225h-17.73c-3.032,0-5.104-0.66-6.154-1.958c-0.798-0.988-1.019-2.341-0.658-4.024l2.003-9.813
			c0.833-3.888,3.934-5.858,9.217-5.858h31.905l1.474-6.997h-31.775c-4.26,0-8.044,1.094-11.248,3.253
			c-3.589,2.349-5.837,5.62-6.682,9.725l-2.004,9.815c-0.841,4.076,0.005,7.313,2.513,9.628c2.271,2.141,5.57,3.226,9.808,3.226
			h17.73c3.036,0,5.118,0.66,6.19,1.962c0.81,0.985,1.053,2.335,0.723,4.015l-2.506,11.826c-0.762,3.881-3.83,5.854-9.115,5.854
			h-31.805L419.525,110.386z"/>
	</g>
	<g>
		<path fill="#F9A51A" d="M527.127,102.88l-1.602,7.512h-33.354c-4.408,0-7.813-1.434-10.218-4.306s-3.141-6.513-2.204-10.921
			l7.511-36.159c0.936-4.409,3.19-8.048,6.763-10.92c3.573-2.871,7.564-4.307,11.972-4.307h33.353l-1.602,7.613h-33.354
			c-2.14,0-4.125,0.736-5.961,2.204c-1.837,1.47-2.99,3.273-3.455,5.41l-2.805,13.423h38.563l-1.604,7.711h-38.464l-3.104,15.025
			c-0.468,2.137-0.102,3.94,1.1,5.41c1.202,1.469,2.872,2.203,5.009,2.203L527.127,102.88z"/>
		<path fill="#F9A51A" d="M525.776,110.7h-33.604c-4.484,0-8-1.487-10.453-4.416c-2.46-2.936-3.224-6.699-2.269-11.184l7.509-36.158
			c0.946-4.459,3.258-8.192,6.872-11.097c3.612-2.903,7.705-4.375,12.164-4.375h33.736l-1.732,8.23h-33.606
			c-2.055,0-3.995,0.719-5.769,2.136c-1.774,1.42-2.899,3.18-3.348,5.234l-2.726,13.05h38.565l-1.732,8.328h-38.465l-3.052,14.78
			c-0.452,2.062-0.112,3.747,1.035,5.151c1.15,1.406,2.712,2.09,4.771,2.09l33.836,0.104L525.776,110.7z M505.995,44.087
			c-4.315,0-8.277,1.426-11.779,4.24c-3.5,2.813-5.739,6.428-6.654,10.744l-7.509,36.158c-0.913,4.29-0.192,7.876,2.137,10.659
			c2.332,2.785,5.69,4.195,9.982,4.195h33.106l1.468-6.896l-33.075-0.1c-2.224,0-3.989-0.779-5.246-2.318
			c-1.259-1.535-1.649-3.444-1.163-5.67l3.153-15.268h38.463l1.479-7.094h-38.566l2.882-13.794c0.479-2.2,1.68-4.078,3.564-5.588
			c1.886-1.507,3.956-2.271,6.154-2.271h33.106l1.473-6.997H505.995z"/>
	</g>
	<g>
		<path fill="#F9A51A" d="M585.53,110.392h-7.715l4.51-21.735c0.4-2.137-0.02-3.94-1.254-5.409
			c-1.236-1.469-2.922-2.203-5.059-2.203h-26.646l-6.01,29.348h-7.813l13.924-66.613h34.357c4.273,0,7.598,1.469,9.971,4.407
			c2.369,2.939,3.119,6.546,2.25,10.82l-1.402,6.812c-0.936,4.541-3.473,8.348-7.613,11.419c2.939,3.004,3.941,6.811,3.006,11.419
			L585.53,110.392z M586.932,65.817l1.402-6.812c0.467-2.137,0.098-3.94-1.104-5.41c-1.203-1.468-2.871-2.204-5.01-2.204h-26.645
			l-4.607,22.039h26.645c2.137,0,4.109-0.734,5.912-2.204S586.465,67.954,586.932,65.817z"/>
		<path fill="#F9A51A" d="M585.782,110.7h-8.344l4.584-22.107c0.381-2.022-0.02-3.757-1.186-5.147
			c-1.188-1.408-2.766-2.094-4.824-2.094h-26.395l-6.01,29.349h-8.443l0.076-0.371l13.98-66.859h34.604
			c4.354,0,7.785,1.521,10.209,4.522c2.42,3,3.199,6.726,2.314,11.074l-1.402,6.813c-0.924,4.492-3.434,8.326-7.451,11.394
			c2.813,3.031,3.77,6.878,2.844,11.444L585.782,110.7z M578.196,110.083h7.082l4.455-21.49c0.912-4.478-0.074-8.227-2.922-11.14
			l-0.248-0.253l0.287-0.21c4.057-3.011,6.58-6.79,7.49-11.235l1.402-6.812c0.846-4.158,0.111-7.712-2.188-10.563
			c-2.299-2.848-5.574-4.293-9.73-4.293h-34.105l-13.795,65.996h7.18l6.01-29.348h26.898c2.223,0,4.002,0.777,5.295,2.313
			c1.293,1.54,1.736,3.444,1.32,5.665L578.196,110.083z M577.614,73.739h-27.021l0.074-0.372l4.662-22.284h26.893
			c2.225,0,3.992,0.78,5.25,2.316c1.26,1.542,1.652,3.449,1.166,5.672l-1.402,6.808c-0.479,2.2-1.662,4.078-3.512,5.586
			C581.872,72.975,579.819,73.739,577.614,73.739z M551.35,73.122h26.264c2.059,0,3.98-0.719,5.721-2.135
			c1.736-1.416,2.848-3.178,3.299-5.236l1.398-6.808c0.451-2.061,0.109-3.746-1.037-5.152c-1.139-1.388-2.742-2.091-4.773-2.091
			h-26.393L551.35,73.122z"/>
	</g>
	<g>
		<path fill="#F9A51A" d="M655.249,43.879l-36.662,66.614h-8.518l-7.813-66.614h7.213l7.211,55.796l31.355-55.796H655.249z"/>
		<path fill="#F9A51A" d="M618.77,110.802h-8.975l-0.031-0.273l-7.854-66.958h7.828l0.037,0.27l7.094,54.875l30.986-55.145h7.916
			L618.77,110.802z M610.344,110.185h8.061l36.326-65.997h-6.514l-31.721,56.448l-0.121-0.922l-7.178-55.526h-6.596L610.344,110.185
			z"/>
	</g>
	<g>
		<path fill="#F9A51A" d="M658.954,110.493h-7.711l13.922-66.915h7.715L658.954,110.493z"/>
		<path fill="#F9A51A" d="M659.204,110.802h-8.34l0.076-0.371l13.973-67.161h8.348l-0.078,0.371L659.204,110.802z M651.624,110.185
			h7.078l13.801-66.298h-7.088L651.624,110.185z"/>
	</g>
	<g>
		<path fill="#F9A51A" d="M719.456,102.88l-1.602,7.512h-33.355c-4.408,0-7.813-1.434-10.217-4.306s-3.143-6.513-2.205-10.921
			l7.512-36.159c0.936-4.409,3.189-8.048,6.764-10.92c3.572-2.871,7.563-4.307,11.971-4.307h33.354l-1.602,7.613h-33.355
			c-2.137,0-4.125,0.736-5.959,2.204c-1.838,1.47-2.99,3.273-3.457,5.41l-7.412,36.159c-0.469,2.137-0.102,3.94,1.1,5.41
			c1.201,1.469,2.871,2.203,5.008,2.203L719.456,102.88z"/>
		<path fill="#F9A51A" d="M718.104,110.7h-33.605c-4.482,0-7.998-1.487-10.453-4.416c-2.459-2.938-3.221-6.701-2.266-11.184
			l7.506-36.158c0.947-4.459,3.26-8.193,6.875-11.097c3.609-2.903,7.703-4.375,12.162-4.375h33.736l-1.732,8.23h-33.607
			c-2.055,0-3.994,0.719-5.766,2.136c-1.773,1.416-2.9,3.178-3.348,5.236l-7.412,36.156c-0.453,2.062-0.111,3.747,1.037,5.151
			c1.15,1.406,2.709,2.09,4.768,2.09l33.838,0.104L718.104,110.7z M698.323,44.087c-4.314,0-8.277,1.426-11.777,4.24
			c-3.5,2.813-5.74,6.427-6.654,10.744l-7.512,36.158c-0.91,4.288-0.191,7.874,2.137,10.659c2.334,2.785,5.693,4.195,9.982,4.195
			h33.107l1.469-6.896l-33.076-0.1c-2.223,0-3.986-0.779-5.244-2.318c-1.26-1.537-1.648-3.444-1.162-5.67L687,58.943
			c0.484-2.202,1.682-4.081,3.566-5.588c1.887-1.507,3.957-2.271,6.152-2.271h33.107l1.473-6.997H698.323z"/>
	</g>
	<g>
		<path fill="#F9A51A" d="M778.356,102.88l-1.602,7.512h-33.355c-4.408,0-7.813-1.434-10.217-4.306s-3.143-6.513-2.205-10.921
			l7.512-36.159c0.936-4.409,3.189-8.048,6.764-10.92c3.572-2.871,7.563-4.307,11.971-4.307h33.354l-1.602,7.613H755.62
			c-2.137,0-4.125,0.736-5.959,2.204c-1.838,1.47-2.99,3.273-3.457,5.41l-2.805,13.423h38.564l-1.604,7.711h-38.465l-3.104,15.025
			c-0.467,2.137-0.102,3.94,1.1,5.41c1.201,1.469,2.871,2.203,5.008,2.203L778.356,102.88z"/>
		<path fill="#F9A51A" d="M777.006,110.7h-33.607c-4.482,0-7.998-1.487-10.453-4.416c-2.459-2.938-3.221-6.701-2.266-11.184
			l7.506-36.158c0.947-4.459,3.26-8.193,6.875-11.097c3.609-2.903,7.703-4.375,12.162-4.375h33.736l-1.732,8.23H755.62
			c-2.055,0-3.994,0.719-5.766,2.136c-1.771,1.416-2.9,3.178-3.348,5.236L743.78,72.12h38.564l-1.732,8.328h-38.467l-3.051,14.78
			c-0.453,2.062-0.111,3.747,1.037,5.151c1.15,1.406,2.709,2.09,4.768,2.09l33.838,0.104L777.006,110.7z M757.223,44.087
			c-4.314,0-8.277,1.426-11.777,4.24c-3.5,2.813-5.74,6.427-6.654,10.744l-7.512,36.158c-0.91,4.288-0.191,7.874,2.137,10.659
			c2.334,2.785,5.693,4.195,9.982,4.195h33.107l1.469-6.896l-33.076-0.1c-2.223,0-3.986-0.779-5.244-2.318
			c-1.26-1.537-1.648-3.444-1.162-5.67l3.15-15.268h38.465l1.479-7.094h-38.564l2.879-13.794c0.484-2.202,1.682-4.081,3.566-5.588
			c1.887-1.507,3.957-2.271,6.152-2.271h33.107l1.473-6.997H757.223z"/>
	</g>
	<g>
		<path fill="#488BA6" d="M845.774,65.817c-0.869,4.274-3.123,7.88-6.762,10.818c-3.641,2.938-7.596,4.408-11.871,4.408h-26.645
			l-6.113,29.65h-7.711l13.922-66.916h34.361c4.273,0,7.594,1.469,9.965,4.407c2.369,2.939,3.123,6.546,2.256,10.82L845.774,65.817z
			 M838.059,65.817l1.402-6.812c0.467-2.137,0.102-3.94-1.1-5.41c-1.203-1.468-2.873-2.204-5.01-2.204h-26.645L802.1,73.43h26.645
			c2.137,0,4.105-0.734,5.908-2.204S837.59,67.954,838.059,65.817z"/>
		<path fill="#488BA6" d="M794.635,111.002h-8.34l0.074-0.371l13.975-67.161h34.611c4.348,0,7.781,1.521,10.205,4.522
			c2.42,3.003,3.201,6.729,2.318,11.074l-1.402,6.813c-0.881,4.323-3.189,8.024-6.867,10.996c-3.682,2.969-7.742,4.476-12.068,4.476
			h-26.393L794.635,111.002z M787.053,110.386h7.08l6.111-29.65h26.896c4.18,0,8.113-1.46,11.68-4.339
			c3.563-2.879,5.803-6.46,6.65-10.64l1.402-6.813c0.844-4.155,0.109-7.71-2.191-10.563c-2.299-2.849-5.57-4.293-9.727-4.293
			h-34.109L787.053,110.386z M828.745,73.739h-27.023l0.076-0.372l4.662-22.284h26.893c2.225,0,3.992,0.78,5.248,2.316
			c1.258,1.539,1.65,3.447,1.164,5.672l-1.402,6.808c-0.48,2.2-1.662,4.078-3.512,5.586
			C832.999,72.975,830.944,73.739,828.745,73.739z M802.481,73.122h26.264c2.055,0,3.975-0.719,5.715-2.135
			c1.736-1.416,2.85-3.178,3.301-5.236l1.398-6.808c0.451-2.063,0.113-3.748-1.033-5.152c-1.139-1.388-2.742-2.091-4.773-2.091
			h-26.395L802.481,73.122z"/>
	</g>
	<g>
		<path fill="#488BA6" d="M902.168,94.866c-0.936,4.274-3.205,7.881-6.813,10.819c-3.605,2.938-7.545,4.407-11.82,4.407h-21.637
			c-4.273,0-7.613-1.469-10.018-4.407c-2.402-2.938-3.143-6.545-2.203-10.819l7.412-35.86c0.869-4.274,3.119-7.88,6.762-10.82
			c3.637-2.938,7.598-4.407,11.871-4.407h21.637c4.273,0,7.594,1.469,9.967,4.407c2.367,2.939,3.123,6.546,2.254,10.82
			L902.168,94.866z M894.454,94.866l7.412-35.86c0.467-2.137,0.102-3.94-1.1-5.41c-1.203-1.468-2.873-2.204-5.01-2.204H874.12
			c-2.137,0-4.109,0.736-5.912,2.204c-1.803,1.47-2.938,3.273-3.406,5.41l-7.412,35.86c-0.467,2.138-0.098,3.94,1.104,5.41
			c1.203,1.469,2.873,2.203,5.01,2.203h21.637c2.137,0,4.105-0.734,5.908-2.203C892.85,98.807,893.985,97.004,894.454,94.866z"/>
		<path fill="#488BA6" d="M883.536,110.401h-21.637c-4.348,0-7.801-1.521-10.252-4.521c-2.459-3.006-3.223-6.733-2.268-11.08
			l7.408-35.857c0.881-4.327,3.195-8.027,6.871-10.996c3.678-2.97,7.734-4.477,12.064-4.477h21.637
			c4.348,0,7.781,1.521,10.205,4.522c2.42,3.003,3.201,6.729,2.318,11.074l-7.412,35.863c-0.947,4.327-3.273,8.025-6.918,10.995
			C891.907,108.895,887.866,110.401,883.536,110.401z M875.723,44.087c-4.184,0-8.111,1.459-11.676,4.339
			c-3.566,2.877-5.805,6.457-6.654,10.641l-7.412,35.863c-0.912,4.156-0.193,7.709,2.141,10.562c2.33,2.848,5.621,4.293,9.777,4.293
			h21.637c4.184,0,8.092-1.459,11.629-4.338c3.531-2.88,5.789-6.461,6.705-10.646l7.408-35.857c0.846-4.155,0.109-7.71-2.191-10.563
			c-2.299-2.848-5.57-4.293-9.727-4.293H875.723z M885.139,102.788h-21.637c-2.225,0-3.988-0.779-5.244-2.317
			c-1.262-1.54-1.654-3.447-1.168-5.671l7.41-35.857c0.482-2.2,1.664-4.078,3.516-5.586c1.85-1.508,3.904-2.273,6.104-2.273h21.637
			c2.225,0,3.992,0.78,5.248,2.316c1.258,1.539,1.65,3.447,1.164,5.672l-7.414,35.857c-0.479,2.2-1.66,4.077-3.512,5.586
			C889.393,102.024,887.338,102.788,885.139,102.788z M874.12,51.7c-2.055,0-3.975,0.718-5.715,2.134
			c-1.74,1.418-2.852,3.18-3.301,5.238l-7.412,35.857c-0.443,2.032-0.094,3.763,1.041,5.151c1.15,1.406,2.711,2.09,4.77,2.09h21.637
			c2.055,0,3.975-0.719,5.715-2.135c1.736-1.416,2.848-3.178,3.301-5.236l7.408-35.857c0.451-2.063,0.113-3.748-1.033-5.152
			c-1.139-1.388-2.742-2.091-4.773-2.091H874.12z"/>
	</g>
	<g>
		<path fill="#488BA6" d="M916.491,110.493h-7.711l13.922-66.915h7.715L916.491,110.493z"/>
		<path fill="#488BA6" d="M916.743,110.802h-8.34l0.074-0.371L922.45,43.27h8.348l-0.078,0.371L916.743,110.802z M909.161,110.185
			h7.078l13.801-66.298h-7.088L909.161,110.185z"/>
	</g>
	<g>
		<path fill="#488BA6" d="M976.995,110.392h-7.713l10.619-51.386c0.467-2.07,0.082-3.858-1.15-5.36
			c-1.238-1.502-2.893-2.254-4.963-2.254h-27.344l-12.221,59h-7.715l13.822-66.613h35.061c4.273,0,7.598,1.469,9.971,4.407
			c2.367,2.939,3.117,6.546,2.25,10.82L976.995,110.392z"/>
		<path fill="#488BA6" d="M977.245,110.7h-8.34l10.693-51.757c0.451-1.996,0.094-3.661-1.084-5.102
			c-1.188-1.44-2.734-2.141-4.727-2.141h-27.092l-12.223,59h-8.342l0.074-0.371l13.875-66.859h35.311
			c4.352,0,7.785,1.521,10.209,4.522c2.42,3,3.197,6.726,2.314,11.074L977.245,110.7z M969.663,110.083h7.08l10.566-51.14
			c0.846-4.158,0.109-7.712-2.188-10.563c-2.299-2.848-5.574-4.293-9.73-4.293h-34.809l-13.693,65.996h7.082l12.221-59h27.596
			c2.156,0,3.91,0.796,5.201,2.367c1.293,1.574,1.701,3.466,1.215,5.624L969.663,110.083z"/>
	</g>
	<g>
		<path fill="#488BA6" d="M1048.016,51.392h-20.537l-12.318,59.102h-7.715l12.322-59.102h-20.635l1.604-7.713h48.883
			L1048.016,51.392z"/>
		<path fill="#488BA6" d="M1015.413,110.802h-8.344l0.074-0.371l12.248-58.73h-20.635l1.729-8.33H1050l-1.732,8.33h-20.537
			L1015.413,110.802z M1007.827,110.185h7.082l12.32-59.101h20.537l1.477-7.097h-48.256l-1.473,7.097h20.635l-0.078,0.371
			L1007.827,110.185z"/>
	</g>
</g>
</svg>
